<?xml version="1.0" encoding="iso-8859-1"?>
<!-- Generator: Adobe Illustrator 19.0.0, SVG Export Plug-In . SVG Version: 6.00 Build 0)  -->
<svg version="1.1" id="Capa_1" xmlns="http://www.w3.org/2000/svg" xmlns:xlink="http://www.w3.org/1999/xlink" x="0px" y="0px"
	 viewBox="0 0 512.001 512.001" style="enable-background:new 0 0 512.001 512.001;" xml:space="preserve">
<g>
	<g>
		<circle cx="255.995" cy="63.999" r="63.999"/>
	</g>
</g>
<g>
	<g>
		<path d="M380.385,465.702L301.57,495.26l39.194,14.698c16.868,6.263,35.068-2.415,41.202-18.733
			C385.231,482.518,384.265,473.399,380.385,465.702z"/>
	</g>
</g>
<g>
	<g>
		<path d="M107.238,354.024c-16.515-6.125-34.984,2.188-41.202,18.733c-6.203,16.547,2.188,34.984,18.733,41.202l34.523,12.945
			l91.143-34.183L107.238,354.024z"/>
	</g>
</g>
<g>
	<g>
		<path d="M445.964,372.758c-6.219-16.547-24.687-24.859-41.202-18.733l-255.995,95.998c-16.547,6.219-24.937,24.655-18.734,41.202
			c6.133,16.313,24.329,24.998,41.202,18.733l255.995-95.998C443.778,407.742,452.168,389.305,445.964,372.758z"/>
	</g>
</g>
<g>
	<g>
		<path d="M479.996,255.995h-76.217l-55.155-110.31c-5.732-11.453-17.392-17.978-29.409-17.687H256h-63.218
			c-12.015-0.291-23.66,6.235-29.405,17.687l-55.155,110.31H32.005c-17.671,0-31.999,14.328-31.999,31.999
			c0,17.671,14.328,31.999,31.999,31.999h95.998c12.125,0,23.203-6.844,28.624-17.687l35.374-70.748v120.08l63.997,23.997
			l64.001-24.004V231.558l35.374,70.748c5.422,10.844,16.5,17.687,28.624,17.687h95.998c17.671,0,31.999-14.328,31.999-31.999
			S497.667,255.995,479.996,255.995z"/>
	</g>
</g>
<g>
</g>
<g>
</g>
<g>
</g>
<g>
</g>
<g>
</g>
<g>
</g>
<g>
</g>
<g>
</g>
<g>
</g>
<g>
</g>
<g>
</g>
<g>
</g>
<g>
</g>
<g>
</g>
<g>
</g>
</svg>
