<?xml version="1.0" encoding="iso-8859-1"?>
<!-- Generator: Adobe Illustrator 19.0.0, SVG Export Plug-In . SVG Version: 6.00 Build 0)  -->
<svg version="1.1" id="Capa_1" xmlns="http://www.w3.org/2000/svg" xmlns:xlink="http://www.w3.org/1999/xlink" x="0px" y="0px"
	 viewBox="0 0 366.3 366.3" style="enable-background:new 0 0 366.3 366.3;" xml:space="preserve">
<g>
	<g>
		<g>
			<path d="M347.3,185.9c-0.1-11.9-9.9-21.5-21.8-21.5H220.1c-5.6-0.1-10-4.6-9.9-10.1V27.9c0-14.9-12.1-27-27-27
				c-14.9,0-27,12.1-27,27v126.4c0,5.5-4.4,10-9.9,10.1H40.9c-12,0-21.7,9.6-21.8,21.5v47.5h328.2V185.9z"/>
			<path d="M366.3,365.4l-17.9-112H17.9L0,365.4h90.1v-46.8c0-5.5,4.5-10,10-10s10,4.5,10,10v46.8h63v-67.6c0-5.5,4.5-10,10-10
				s10,4.5,10,10v67.6h63v-46.8c0-5.5,4.5-10,10-10s10,4.5,10,10v46.8H366.3z"/>
		</g>
	</g>
</g>
<g>
</g>
<g>
</g>
<g>
</g>
<g>
</g>
<g>
</g>
<g>
</g>
<g>
</g>
<g>
</g>
<g>
</g>
<g>
</g>
<g>
</g>
<g>
</g>
<g>
</g>
<g>
</g>
<g>
</g>
</svg>
