<?xml version="1.0" encoding="iso-8859-1"?>
<!-- Generator: Adobe Illustrator 19.0.0, SVG Export Plug-In . SVG Version: 6.00 Build 0)  -->
<svg version="1.1" id="Capa_1" xmlns="http://www.w3.org/2000/svg" xmlns:xlink="http://www.w3.org/1999/xlink" x="0px" y="0px"
	 viewBox="0 0 387.562 387.562" style="enable-background:new 0 0 387.562 387.562;" xml:space="preserve">
<g>
	<g>
		<path d="M298.375,22.918c-30.2-30.2-79.3-30.3-109.5,0l-75.8,75.8l109.6,109.6l75.7-75.9
			C328.575,102.118,328.575,53.118,298.375,22.918z M220.675,67.718l-34.5,34l-0.1,0.1c-4,3.9-10.3,3.8-14.1-0.2
			c-3.9-4-3.8-10.3,0.2-14.1l34.6-34l0.1-0.1c4-3.9,10.3-3.8,14.1,0.2C224.775,57.518,224.675,63.918,220.675,67.718z"/>
	</g>
</g>
<g>
	<g>
		<path d="M98.875,112.818l-76.3,76.4c-30.1,30.3-30.1,79.2,0,109.5c30.5,30.1,79.6,30.1,110.1,0l75.9-76.2L98.875,112.818z"/>
	</g>
</g>
<g>
	<g>
		<path d="M371.575,263.418l-107.9,108c30.7,23.5,74,20.7,101.3-6.6C392.375,337.518,395.175,294.118,371.575,263.418z"/>
	</g>
</g>
<g>
	<g>
		<path d="M310.575,233.418c-42.5,0-77,34.4-77,77c0,17,5.6,33.5,15.9,46.9l107.9-107.9
			C343.975,239.018,327.575,233.418,310.575,233.418z"/>
	</g>
</g>
<g>
</g>
<g>
</g>
<g>
</g>
<g>
</g>
<g>
</g>
<g>
</g>
<g>
</g>
<g>
</g>
<g>
</g>
<g>
</g>
<g>
</g>
<g>
</g>
<g>
</g>
<g>
</g>
<g>
</g>
</svg>
