<svg id="Capa_1" enable-background="new 0 0 512.003 512.003" height="512" viewBox="0 0 512.003 512.003" width="512" xmlns="http://www.w3.org/2000/svg"><g><path d="m256.002 512.002c22.118 0 41.216-13.131 49.941-32h-99.882c8.725 18.869 27.823 32 49.941 32z"/><path d="m241.002 380.002v-121.308c-34.192-6.039-60-32.302-60-63.692 0-8.284 6.716-15 15-15s15 6.716 15 15c0 15.209 12.541 28.177 30 32.993v-217.741c-10.296-6.594-22.38-10.252-35-10.252-31.545 0-58.453 22.777-63.934 53.518-36.123 10.564-61.066 43.603-61.066 81.482 0 20.254 7.17 39.61 20.284 55-13.113 15.39-20.284 34.746-20.284 55 0 37.88 24.943 70.918 61.066 81.482 5.48 30.74 32.389 53.518 63.934 53.518z"/><path d="m181.002 425.002c0 13.807 11.193 25 25 25h100c13.807 0 25-11.193 25-25v-15h-150z"/><path d="m369.935 53.519c-5.48-30.74-32.388-53.518-63.934-53.518-12.62 0-24.704 3.658-35 10.252v111.057c34.192 6.039 60 32.302 60 63.692 0 8.284-6.716 15-15 15s-15-6.716-15-15c0-15.209-12.541-28.177-30-32.993v227.993h35c31.545 0 58.454-22.777 63.934-53.518 36.123-10.564 61.066-43.603 61.066-81.482 0-20.254-7.17-39.61-20.283-55 13.113-15.39 20.283-34.746 20.283-55 .001-37.88-24.943-70.918-61.066-81.483z"/><g><g><path d="m467.015 85.004c-4.847 0-9.604-2.346-12.495-6.682-4.595-6.893-2.732-16.206 4.161-20.801l30-20c6.892-4.597 16.206-2.733 20.801 4.16s2.732 16.206-4.161 20.801l-30 20c-2.556 1.705-5.447 2.522-8.306 2.522z"/></g><g><path d="m496.988 335.004c-2.859 0-5.75-.816-8.307-2.521l-30-20c-6.893-4.595-8.756-13.908-4.161-20.801 4.596-6.894 13.91-8.755 20.801-4.16l30 20c6.893 4.595 8.756 13.908 4.161 20.801-2.89 4.335-7.647 6.681-12.494 6.681z"/></g></g><g><g><path d="m44.988 85.004c-2.859 0-5.75-.816-8.307-2.521l-30-20c-6.893-4.595-8.756-13.908-4.161-20.801 4.596-6.894 13.91-8.756 20.801-4.16l30 20c6.893 4.595 8.756 13.908 4.161 20.801-2.89 4.335-7.647 6.681-12.494 6.681z"/></g><g><path d="m15.015 335.004c-4.847 0-9.604-2.346-12.495-6.682-4.595-6.893-2.732-16.206 4.161-20.801l30-20c6.892-4.597 16.206-2.733 20.801 4.16s2.732 16.206-4.161 20.801l-30 20c-2.556 1.705-5.447 2.522-8.306 2.522z"/></g></g><g><path d="m45.002 200.002h-30c-8.284 0-15-6.716-15-15s6.716-15 15-15h30c8.284 0 15 6.716 15 15s-6.716 15-15 15z"/></g><g><path d="m497.002 200.002h-30c-8.284 0-15-6.716-15-15s6.716-15 15-15h30c8.284 0 15 6.716 15 15s-6.716 15-15 15z"/></g></g></svg>