<?xml version="1.0" encoding="iso-8859-1"?>
<!-- Generator: Adobe Illustrator 19.0.0, SVG Export Plug-In . SVG Version: 6.00 Build 0)  -->
<svg version="1.1" id="Capa_1" xmlns="http://www.w3.org/2000/svg" xmlns:xlink="http://www.w3.org/1999/xlink" x="0px" y="0px"
	 viewBox="0 0 512 512" style="enable-background:new 0 0 512 512;" xml:space="preserve">
<g>
	<g>
		<g>
			<path d="M362.667,170.667c-11.76,0-21.333-9.573-21.333-21.333c0-23.531-19.135-42.667-42.667-42.667h-32
				c-5.896,0-10.667,4.771-10.667,10.667c0,5.896,4.771,10.667,10.667,10.667h32c11.76,0,21.333,9.573,21.333,21.333
				C320,172.865,339.135,192,362.667,192c11.76,0,21.333,9.573,21.333,21.333v32c0,5.896,4.771,10.667,10.667,10.667
				s10.667-4.771,10.667-10.667v-32C405.333,189.802,386.198,170.667,362.667,170.667z"/>
			<path d="M352,234.667h-21.333c-5.885,0-10.667-4.781-10.667-10.667c0-17.646-14.354-32-32-32
				c-5.885,0-10.667-4.781-10.667-10.667V160c0-5.896-4.771-10.667-10.667-10.667c-5.896,0-10.667,4.771-10.667,10.667v21.333
				c0,17.646,14.354,32,32,32c5.885,0,10.667,4.781,10.667,10.667c0,17.646,14.354,32,32,32H352c5.896,0,10.667-4.771,10.667-10.667
				C362.667,239.438,357.896,234.667,352,234.667z"/>
			<path d="M256,0C114.844,0,0,114.844,0,256s114.844,256,256,256s256-114.844,256-256S397.156,0,256,0z M256,469.333
				c-117.635,0-213.333-95.698-213.333-213.333c0-51.151,18.125-98.126,48.249-134.918l156.251,156.251H117.333
				c-5.896,0-10.667,4.771-10.667,10.667v42.667c0,5.896,4.771,10.667,10.667,10.667h193.833l79.751,79.751
				C354.126,451.208,307.151,469.333,256,469.333z M421.085,390.918L371.5,341.333h23.167c5.896,0,10.667-4.771,10.667-10.667V288
				c0-5.896-4.771-10.667-10.667-10.667H307.5L121.082,90.915C157.874,60.792,204.849,42.667,256,42.667
				c117.635,0,213.333,95.698,213.333,213.333C469.333,307.151,451.208,354.126,421.085,390.918z M362.667,320v-21.333H384V320
				H362.667z"/>
		</g>
	</g>
</g>
<g>
</g>
<g>
</g>
<g>
</g>
<g>
</g>
<g>
</g>
<g>
</g>
<g>
</g>
<g>
</g>
<g>
</g>
<g>
</g>
<g>
</g>
<g>
</g>
<g>
</g>
<g>
</g>
<g>
</g>
</svg>
